<?xml version="1.0" encoding="UTF-8"?>
<svg width="365px" height="253px" viewBox="0 0 365 253" version="1.1" xmlns="http://www.w3.org/2000/svg" xmlns:xlink="http://www.w3.org/1999/xlink">
    <title>Fill 1</title>
    <g id="Page-1" stroke="none" stroke-width="1" fill="none" fill-rule="evenodd">
        <g id="Landing-Page" transform="translate(-408.000000, -5771.000000)" fill="#FF4080">
            <g id="casey-horner-RmoWqDCqN2E-unsplash-Copy" transform="translate(299.864549, 5610.554956)">
                <path d="M333.637227,286.81365 C300.777566,253.957377 268.131347,221.314885 235.640298,188.827563 C203.141457,221.323016 170.495238,253.965169 138.081435,286.375246 L235.7582,384.040831 C249.192211,370.609191 262.788845,357.014251 276.596888,343.208579 C257.748888,324.36329 238.755205,305.372317 219.862145,286.481967 C232.2015,274.144306 244.567282,261.780557 256.651184,249.69835 C261.218856,254.261617 265.867162,258.90518 270.69808,263.731016 C263.207938,271.218109 255.552462,278.871213 248.107719,286.313246 C280.744113,318.94659 313.420823,351.620251 345.922375,384.118415 C378.4202,351.624317 411.071839,318.976404 443.65267,286.399639 C411.116899,253.867257 378.464921,221.218667 346.006058,188.76353 C332.460244,202.310022 318.828714,215.94223 304.906834,229.864787 C323.731457,248.686361 342.715654,267.667169 361.41255,286.361355 C349.109785,298.663781 336.754845,311.018044 324.507981,323.26423 C320.081588,318.869344 315.480036,314.300317 310.77244,309.625923 C318.437402,301.978579 326.13726,294.296339 333.637227,286.81365 M236.30502,160.5 C236.633654,160.932984 236.916888,161.411705 237.298036,161.792852 C254.696998,179.205027 272.104429,196.609071 289.513555,214.011421 C289.900801,214.398328 290.316167,214.757454 290.769479,215.176546 C291.213981,214.762874 291.591063,214.432546 291.944768,214.078842 C309.472134,196.55588 326.998145,179.030885 344.521107,161.50318 C344.836528,161.18776 345.11502,160.835071 345.410451,160.5 L346.427184,160.5 C346.83679,161.013617 347.201337,161.572634 347.662779,162.034415 C388.665107,203.045552 429.674888,244.049235 470.682298,285.054951 C471.141708,285.514699 471.577741,285.997825 472.241785,286.699137 C471.603828,287.20259 471.070899,287.542404 470.634189,287.978776 C430.856276,327.738393 391.085479,367.505464 351.315697,407.273213 C350.91761,407.671301 346.136124,412.049799 345.749556,412.459405 L341.504251,408.5 C341.194251,408.112415 340.758757,407.690951 340.410134,407.342328 C324.22102,391.143727 308.026145,374.950885 291.828222,358.761093 C291.486036,358.419246 291.102517,358.118732 290.624473,357.698962 C290.166419,358.212918 289.811358,358.653016 289.41361,359.050765 C279.126014,369.344459 268.830287,379.630022 258.544386,389.92541 C252.366069,396.109486 241.882296,406.495891 235.71211,412.688099 L231.417302,408.5 C230.947729,407.952164 230.317107,407.370448 229.808233,406.861913 C190.219369,367.266951 150.626102,327.677071 111.018604,288.100743 C110.508375,287.590852 109.815872,287.263913 108.758145,286.546 C109.823664,285.78506 110.390812,285.487596 110.823118,285.055628 C151.903031,243.998754 192.973118,202.932055 234.040834,161.862645 C234.476189,161.427628 234.873599,160.955005 235.288626,160.5 L236.30502,160.5 Z" id="Fill-1"></path>
            </g>
        </g>
    </g>
</svg>